PathFileType	4	(X/Y/Z)	/Users/itak/Documents/Research/Walk-IL/dataset/trc/00426_00167.trc
DataRate	CameraRate	NumFrames	NumMarkers	Units	OrigDataRate	OrigDataStartFrame	OrigNumFrames
100.000000	100.000000	4	53	mm	100.000000	225	602
Frame#	Time	RPSI			LPSI			L3			STRN			T10			C7			CLAV			RBAK			LBAK			LSHO			LUPA			LAEL			LAOL			LWTS			LWPS			LFRA			LIFD			LHPS			LHTS			RSHO			RUPA			RAEL			RAOL			RWTS			RWPS			RFRA			RIFD			RHTS			RHPS			RBHD			LFHD			RFHD			LBHD			LHIP			RHIP			RASI			LASI			LKNE			LTHI			LANK			LTIP			LTOE			LMT1			LMT5			LHEE			RKNE			RTHI			RANK			RTIP			RTOE			RMT1			RMT5			RHEE			
		X1	Y1	Z1	X2	Y2	Z2	X3	Y3	Z3	X4	Y4	Z4	X5	Y5	Z5	X6	Y6	Z6	X7	Y7	Z7	X8	Y8	Z8	X9	Y9	Z9	X10	Y10	Z10	X11	Y11	Z11	X12	Y12	Z12	X13	Y13	Z13	X14	Y14	Z14	X15	Y15	Z15	X16	Y16	Z16	X17	Y17	Z17	X18	Y18	Z18	X19	Y19	Z19	X20	Y20	Z20	X21	Y21	Z21	X22	Y22	Z22	X23	Y23	Z23	X24	Y24	Z24	X25	Y25	Z25	X26	Y26	Z26	X27	Y27	Z27	X28	Y28	Z28	X29	Y29	Z29	X30	Y30	Z30	X31	Y31	Z31	X32	Y32	Z32	X33	Y33	Z33	X34	Y34	Z34	X35	Y35	Z35	X36	Y36	Z36	X37	Y37	Z37	X38	Y38	Z38	X39	Y39	Z39	X40	Y40	Z40	X41	Y41	Z41	X42	Y42	Z42	X43	Y43	Z43	X44	Y44	Z44	X45	Y45	Z45	X46	Y46	Z46	X47	Y47	Z47	X48	Y48	Z48	X49	Y49	Z49	X50	Y50	Z50	X51	Y51	Z51	X52	Y52	Z52	X53	Y53	Z53	

226	2.25	-666.1065063476562	957.2367553710938	-98.01029205322266	-583.5737915039062	945.7747802734375	-213.5841369628906	-629.564208984375	1057.505126953125	-126.951171875	-386.85595703125	1240.034423828125	11.064866065979	-638.6436767578125	1182.682250976562	-130.3059844970703	-580.2814331054688	1446.837280273438	-78.01591491699219	-413.480224609375	1355.396240234375	-7.16892147064209	-683.6320190429688	1329.167114257812	-23.80118942260742	-561.427001953125	1404.016967773438	-183.9983520507812	-431.1386413574219	1420.0966796875	-199.4725341796875	-386.5846252441406	1309.052001953125	-294.9000549316406	-328.7303161621094	1105.242431640625	-326.9721374511719	-426.6897583007812	1070.91552734375	-314.2945861816406	-234.3283996582031	936.4508056640625	-222.9544372558594	-236.4722595214844	909.2935791015625	-291.8093566894531	-284.74853515625	1027.401000976562	-314.8266906738281	-173.9951324462891	780.7454833984375	-200.1174926757812	-206.4384155273438	836.384033203125	-275.8777160644531	-190.5706787109375	859.25830078125	-210.4112548828125	-591.1258544921875	1411.796997070312	95.34746551513672	-638.0777587890625	1353.52783203125	158.9128723144531	-640.552978515625	1081.466796875	254.1156005859375	-670.8047485351562	1050.8134765625	201.5183868408203	-502.1230163574219	905.1712646484375	292.6972351074219	-583.3079223632812	880.2210693359375	318.9497375488281	-633.4147338867188	1026.454467773438	274.8876342773438	-478.3288879394531	753.55517578125	335.9493103027344	-477.8199768066406	814.5126342773438	331.809326171875	-551.8936157226562	800.5794677734375	342.2716674804688	-551.6798706054688	1634.94580078125	37.03761672973633	-355.7796936035156	1655.092041015625	-27.28212547302246	-422.789306640625	1653.259155273438	85.07114410400391	-473.6730651855469	1642.565063476562	-123.4367218017578	-390.9685668945312	852.767578125	-221.8857421875	-653.1026000976562	853.0656127929688	85.01315307617188	-532.0643310546875	893.6649780273438	94.83452606201172	-377.1155700683594	896.911376953125	-104.1923141479492	-252.6660461425781	463.2035522460938	-114.6618194580078	-261.6573181152344	622.5540161132812	-135.8963012695312	-447.9532470703125	111.1866302490234	-242.7071075439453	-309.1952209472656	317.27099609375	-163.6455383300781	-301.0137329101562	51.26156234741211	-74.88414764404297	-376.4051818847656	71.41378021240234	-84.32221984863281	-322.6984558105469	72.07555389404297	-180.6543426513672	-516.2971801757812	128.9569702148438	-226.3411560058594	-614.9788208007812	455.2202758789062	34.42602920532227	-615.2196044921875	714.3438720703125	102.594856262207	-652.6366577148438	42.90686798095703	-40.11546325683594	-622.817138671875	307.29931640625	23.81802749633789	-441.5344543457031	45.65664672851562	24.00169372558594	-480.1603393554688	51.10319137573242	-37.47751617431641	-548.2088623046875	47.85628128051758	46.48160552978516	-688.4765625	34.91616058349609	-113.4657821655273	
227	2.26	-660.0791015625	956.4155883789062	-94.22212982177734	-577.3412475585938	944.941650390625	-209.5241394042969	-623.9025268554688	1056.638793945312	-123.0548400878906	-381.3724975585938	1239.378173828125	14.98281097412109	-632.95654296875	1181.81494140625	-126.3318481445312	-574.6065673828125	1446.07861328125	-74.37682342529297	-407.8876037597656	1354.713623046875	-3.439205408096313	-678.1015014648438	1328.539428710938	-20.05948448181152	-555.7825317382812	1403.091430664062	-180.3047180175781	-425.4938354492188	1419.025390625	-195.8228149414062	-381.0536499023438	1307.963134765625	-291.2225036621094	-323.2846984863281	1104.06640625	-323.4104919433594	-421.3512573242188	1069.937744140625	-310.9115600585938	-229.5268096923828	934.806396484375	-219.6039276123047	-231.4832611083984	907.8668212890625	-288.5241088867188	-279.5261535644531	1026.095092773438	-311.3928527832031	-169.5321502685547	778.9613647460938	-197.0406036376953	-201.5911865234375	834.8801879882812	-272.7186584472656	-185.9437103271484	857.5217895507812	-207.1501159667969	-585.5550537109375	1411.23828125	99.05121612548828	-632.4622802734375	1352.90966796875	162.6175994873047	-634.229248046875	1080.968505859375	258.1378479003906	-664.5718994140625	1050.15380859375	205.6774139404297	-495.0091857910156	905.2908935546875	296.5323181152344	-576.009765625	880.0571899414062	323.0726013183594	-626.8447875976562	1026.001708984375	278.9546203613281	-470.4569091796875	753.8919677734375	340.0701293945312	-470.2049560546875	814.8206176757812	335.78857421875	-544.18896484375	800.6200561523438	346.5082397460938	-545.4781494140625	1634.408447265625	40.51454162597656	-349.5717468261719	1654.018676757812	-23.95650291442871	-416.4750061035156	1652.43896484375	88.4482421875	-467.5213928222656	1641.748413085938	-120.0226593017578	-384.3799438476562	852.4992065429688	-217.2198638916016	-647.8839111328125	852.3506469726562	88.78749084472656	-526.736328125	892.7703247070312	98.96123504638672	-371.1053161621094	896.729736328125	-99.47879791259766	-243.4552459716797	464.435546875	-106.7860565185547	-254.1968536376953	623.519287109375	-129.7010192871094	-424.4752807617188	102.3712387084961	-226.7273406982422	-294.1968994140625	315.7090454101562	-152.6362915039062	-274.7081604003906	52.65739059448242	-57.98663330078125	-350.959716796875	69.29932403564453	-67.69671630859375	-297.5224304199219	70.20525360107422	-164.1850891113281	-493.4588623046875	117.4587478637695	-210.5392761230469	-611.6354370117188	454.6676025390625	36.54241180419922	-610.4640502929688	713.4803466796875	105.7499847412109	-652.5526733398438	43.08501434326172	-40.18011474609375	-620.5942993164062	306.8345947265625	25.10737419128418	-441.5013122558594	45.6064567565918	24.04062271118164	-480.0845947265625	51.06754302978516	-37.51222229003906	-548.2109985351562	47.86745452880859	46.44443511962891	-688.3807373046875	35.19599151611328	-113.581169128418	
228	2.27	-653.9901123046875	955.5562133789062	-90.45435333251953	-571.0176391601562	944.0715942382812	-205.5056304931641	-618.1383666992188	1055.728271484375	-119.168327331543	-375.7760314941406	1238.678466796875	18.90420913696289	-627.1959838867188	1180.899536132812	-122.3740615844727	-568.8505859375	1445.270141601562	-70.74783325195312	-402.2149658203125	1353.97802734375	0.2768634557723999	-672.4874267578125	1327.867309570312	-16.34885597229004	-550.0634155273438	1402.119140625	-176.6193084716797	-419.7778015136719	1417.905029296875	-192.1917877197266	-375.4824829101562	1306.791381835938	-287.5492553710938	-317.9033203125	1102.758666992188	-319.7979736328125	-416.0946960449219	1068.910888671875	-307.4187316894531	-224.8868103027344	932.8389892578125	-216.3971099853516	-226.7574768066406	906.1697998046875	-285.4071960449219	-274.4459533691406	1024.592041015625	-307.9884948730469	-165.3972778320312	776.7634887695312	-194.3046569824219	-197.0677032470703	833.0661010742188	-269.8106079101562	-181.5527191162109	855.3942260742188	-204.1355285644531	-579.9253540039062	1410.630493164062	102.7398910522461	-626.8280639648438	1352.245849609375	166.2851257324219	-628.044189453125	1080.335327148438	261.9486083984375	-658.424072265625	1049.3955078125	209.5748138427734	-488.0090942382812	905.2811889648438	300.0874938964844	-568.8179931640625	879.7266845703125	326.859619140625	-620.402587890625	1025.403442382812	282.7675170898438	-462.6557922363281	754.090576171875	343.8269348144531	-462.6879577636719	814.9918212890625	339.4457702636719	-536.5712280273438	800.4937744140625	350.3766174316406	-539.2136840820312	1633.8115234375	43.97257232666016	-343.3168029785156	1652.899780273438	-20.650390625	-410.0993041992188	1651.570556640625	91.80911254882812	-461.3073425292969	1640.883056640625	-116.6274948120117	-377.7419128417969	852.1664428710938	-212.5503082275391	-642.6395263671875	851.589111328125	92.54319000244141	-521.3663940429688	891.8181762695312	103.0863647460938	-365.0281372070312	896.445068359375	-94.74276733398438	-234.5962066650391	465.4665222167969	-99.19756317138672	-246.9242706298828	624.2553100585938	-123.6590118408203	-400.6494750976562	93.98134613037109	-210.6525421142578	-279.3001403808594	314.2212829589844	-141.8032836914062	-248.5759735107422	54.42557144165039	-41.22568893432617	-325.5186462402344	67.59223175048828	-51.12598037719727	-272.3504333496094	68.72441101074219	-147.7756958007812	-470.1974792480469	106.4006195068359	-194.6089630126953	-608.2221069335938	454.0820617675781	38.69112777709961	-605.667236328125	712.5709228515625	108.9163208007812	-652.4634399414062	43.27559661865234	-40.24155807495117	-618.3268432617188	306.3482666015625	26.42189407348633	-441.4665832519531	45.55515289306641	24.07595062255859	-480.0088195800781	51.04127502441406	-37.54380035400391	-548.2162475585938	47.87493133544922	46.42004013061523	-688.2625122070312	35.49606704711914	-113.7031326293945	
229	2.28	-647.8322143554688	954.6564331054688	-86.70040893554688	-564.5960083007812	943.1598510742188	-201.5230255126953	-612.262451171875	1054.7763671875	-115.2887954711914	-370.0716552734375	1237.932006835938	22.82808876037598	-621.356201171875	1179.939331054688	-118.4367980957031	-563.0084228515625	1444.41259765625	-67.12356567382812	-396.4597473144531	1353.191040039062	3.981374740600586	-666.7810668945312	1327.151123046875	-12.66781520843506	-544.2619018554688	1401.098999023438	-172.9373779296875	-413.9853515625	1416.737060546875	-188.5803527832031	-369.8717956542969	1305.531616210938	-283.8790588378906	-312.592529296875	1101.32080078125	-316.1435241699219	-410.9332275390625	1067.8349609375	-303.8160095214844	-220.395263671875	930.5630493164062	-213.340087890625	-222.2916259765625	904.2106323242188	-282.4588012695312	-269.5092163085938	1022.892761230469	-304.6189880371094	-161.5814208984375	774.1649169921875	-191.90283203125	-192.8770141601562	830.9462890625	-267.1529541015625	-177.3912353515625	852.8893432617188	-201.3699645996094	-574.2276000976562	1409.974731445312	106.416862487793	-621.1647338867188	1351.539916992188	169.9217224121094	-621.9922485351562	1079.568603515625	265.552978515625	-652.3573608398438	1048.540893554688	213.2164306640625	-481.1294250488281	905.1331787109375	303.3772583007812	-561.7443237304688	879.2224731445312	330.3209533691406	-614.0867309570312	1024.66015625	286.3328857421875	-454.9444580078125	754.1314697265625	347.2090759277344	-455.2859802246094	815.0145263671875	342.7805480957031	-529.0641479492188	800.1844482421875	353.8738098144531	-532.8810424804688	1633.156982421875	47.41537094116211	-337.0101013183594	1651.73779296875	-17.36026000976562	-403.6598510742188	1650.657348632812	95.1566162109375	-455.0264587402344	1639.964965820312	-113.2495880126953	-371.0526123046875	851.765380859375	-207.8843994140625	-637.361328125	850.7821044921875	96.27947998046875	-515.949951171875	890.80859375	107.2114791870117	-358.87060546875	896.0604248046875	-89.9901123046875	-226.0681610107422	466.2799377441406	-91.88038635253906	-239.8275909423828	624.7484130859375	-117.7572860717773	-376.5300903320312	86.10572814941406	-194.5274658203125	-264.5259094238281	312.8151245117188	-131.1381530761719	-222.7160186767578	56.54408264160156	-24.59898948669434	-300.1824035644531	66.31333160400391	-34.63096618652344	-247.2495727539062	67.64814758300781	-131.4276275634766	-446.584228515625	95.90805053710938	-178.6217346191406	-604.7459716796875	453.4666137695312	40.85755157470703	-600.8229370117188	711.6173095703125	112.091423034668	-652.3675537109375	43.4750862121582	-40.29792404174805	-616.0225830078125	305.8457641601562	27.75514030456543	-441.4262084960938	45.49945068359375	24.10828971862793	-479.9310913085938	51.02506256103516	-37.5675163269043	-548.2240600585938	47.87629699707031	46.41040420532227	-688.121826171875	35.81330108642578	-113.8295440673828	
